<?xml version="1.0" encoding="UTF-8"?><svg id="Layer_2" xmlns="http://www.w3.org/2000/svg" viewBox="0 0 549.23 220.97"><defs><style>.cls-1{fill:#fff;stroke-width:0px;}</style></defs><path class="cls-1" d="m74.35,24.6h-24.88v84.03h-24.59V24.6H0V0h74.35v24.6Z"/><path class="cls-1" d="m160.47,0v75.73h-16.02l16.02,32.9h-24.6l-16.02-32.9h-9.13v32.9h-24.6V0h74.35Zm-24.6,24.6h-25.15v26.53h25.15v-26.53Z"/><path class="cls-1" d="m250.32,0v108.63h-74.35V0h24.6v84.03h25.16V0h24.6Z"/><path class="cls-1" d="m290.42,24.6v17.42h49.75v66.61h-74.35v-24.6h49.76v-17.41h-49.75V0h74.35v24.6h-49.75Z"/><path class="cls-1" d="m426.13,24.6h-24.88v84.03h-24.59V24.6h-24.88V0h74.35v24.6Z"/><path class="cls-1" d="m220.44,126.35v58.5h-40.04v-58.5h40.04Zm-13.25,13.25h-13.55v32.01h13.55v-32.01Z"/><path class="cls-1" d="m268.82,126.35v40.78h-8.63l8.63,17.72h-13.25l-8.63-17.72h-4.92v17.72h-13.25v-58.5h40.04Zm-13.25,13.25h-13.55v14.29h13.55v-14.29Z"/><path class="cls-1" d="m308.03,147.78v15.17h21.91v21.43h-21.91v36.6h-21.43v-94.62h64.77v21.43h-43.34Z"/><path class="cls-1" d="m398.87,198.72h-23.06l-2.6,22.25h-21.43l11.08-94.62h48.97l11.08,94.62h-21.43l-2.61-22.25Zm-2.5-21.43l-3.46-29.52h-11.13l-3.45,29.52h18.04Z"/><path class="cls-1" d="m486.23,199.54v21.43h-52.59v-94.62h21.43v73.2h31.16Z"/><path class="cls-1" d="m549.23,199.54v21.43h-52.59v-94.62h21.43v73.2h31.16Z"/></svg>