<?xml version="1.0" encoding="UTF-8"?><svg id="Layer_2" xmlns="http://www.w3.org/2000/svg" viewBox="0 0 494.43 268.81"><defs><style>.cls-1{fill:#fff;stroke-width:0px;}</style></defs><path class="cls-1" d="m73.03,108.38H0V6.24h61.07l11.96,102.14Zm-25.84-23.13l-6.54-55.88h-17.52v55.88h24.06Z"/><path class="cls-1" d="m151.3,6.24v102.14h-69.91V6.24h69.91Zm-23.13,23.13h-23.65v55.88h23.65V29.37Z"/><path class="cls-1" d="m231.27,6.24v102.14h-23.13l-23.65-51.61v51.61h-23.13V6.29l-.02-.05h23.16v.06l23.65,51.61V6.24h23.13Z"/><path class="cls-1" d="m264.42,0l-3.12,30.41h-17.76l3.12-30.41h17.76Z"/><path class="cls-1" d="m341.47,29.37h-23.39v79.01h-23.12V29.37h-23.39V6.24h69.9v23.13Z"/><path class="cls-1" d="m103.62,132.94h-12.48v42.17h-12.34v-42.17h-12.48v-12.35h37.31v12.35Z"/><path class="cls-1" d="m144.57,120.6v38.01h-8.04l8.04,16.51h-12.34l-8.04-16.51h-4.58v16.51h-12.35v-54.52h37.31Zm-12.34,12.35h-12.62v13.32h12.62v-13.32Z"/><path class="cls-1" d="m177.76,157.55v17.56h-12.34v-17.56l-17.78-36.96h14.01l9.94,20.66,9.94-20.66h14.01l-17.78,36.96Z"/><path class="cls-1" d="m247.5,132.94h-12.48v42.17h-12.34v-42.17h-12.48v-12.35h37.31v12.35Z"/><path class="cls-1" d="m289.31,120.6v54.52h-37.32v-54.52h37.32Zm-12.35,12.35h-12.62v29.83h12.62v-29.83Z"/><path class="cls-1" d="m354.65,120.6v38.01h-8.04l8.04,16.51h-12.34l-8.04-16.51h-4.58v16.51h-12.35v-54.52h37.31Zm-12.34,12.35h-12.62v13.32h12.62v-13.32Z"/><path class="cls-1" d="m398.09,120.6v54.52h-37.32v-54.52h12.34v42.17h12.63v-42.17h12.35Z"/><path class="cls-1" d="m441.58,120.6v54.52h-12.35l-12.62-27.55v27.55h-12.35v-54.52s12.35,0,12.35,0v.03l12.62,27.55v-27.58h12.35Z"/><path class="cls-1" d="m254.63,250.02h-19.47l-2.2,18.79h-18.1l9.35-79.91h41.35l9.35,79.91h-18.1l-2.2-18.79Zm-2.11-18.09l-2.92-24.93h-9.4l-2.92,24.93h15.24Z"/><path class="cls-1" d="m369.05,188.9l-9.35,79.91h-31.57l-7.03-60.05-7.03,60.05h-31.57l-9.35-79.91h18.1l7.05,60.18,7.04-60.18h31.54l7.04,60.18,7.04-60.18h18.1Z"/><path class="cls-1" d="m406.66,250.02h-19.47l-2.2,18.79h-18.1l9.35-79.91h41.35l9.35,79.91h-18.1l-2.2-18.79Zm-2.12-18.09l-2.92-24.93h-9.4l-2.92,24.93h15.24Z"/><path class="cls-1" d="m468.37,243.07v25.74h-18.09v-25.74l-26.06-54.17h20.54l14.57,30.29,14.57-30.29h20.54l-26.06,54.17Z"/></svg>