<?xml version="1.0" encoding="UTF-8"?><svg id="Layer_2" xmlns="http://www.w3.org/2000/svg" viewBox="0 0 568.7 216.12"><defs><style>.cls-1{fill:#fff;stroke-width:0px;}</style></defs><path class="cls-1" d="m26.7,26.7v18.9h27.3v26.7h-27.3v45.6H0V0h80.69v26.7H26.7Z"/><path class="cls-1" d="m120.17,26.7v18.9h27.3v26.7h-27.3v18.9h53.99v26.7h-80.69V0h80.69v26.7h-53.99Z"/><path class="cls-1" d="m217.79,26.7v18.9h27.3v26.7h-27.3v18.9h53.99v26.7h-80.69V0h80.69v26.7h-53.99Z"/><path class="cls-1" d="m352.24,91.19v26.7h-65.52V0h26.7v91.19h38.82Z"/><path class="cls-1" d="m407.19,63.61v54.28h-37.16v-54.28h37.16Zm-12.29,12.29h-12.57v29.7h12.57v-29.7Z"/><path class="cls-1" d="m452.09,63.61v54.28h-37.16v-54.28h12.29v41.99h12.57v-41.99h12.29Z"/><path class="cls-1" d="m496.98,63.61v37.85h-8.01l8.01,16.44h-12.29l-8.01-16.44h-4.56v16.44h-12.29v-54.28h37.15Zm-12.29,12.29h-12.57v13.26h12.57v-13.26Z"/><path class="cls-1" d="m135.28,196.97h-19.84l-2.24,19.15h-18.44l9.53-81.43h42.14l9.53,81.43h-18.44l-2.24-19.15Zm-2.15-18.44l-2.97-25.41h-9.58l-2.97,25.41h15.53Z"/><path class="cls-1" d="m233.17,134.68v81.43h-18.44v-49.55l-15.69,32.63-.05.14h0s0,0,0,0l-.06-.14-15.68-32.63v49.55h-18.44v-81.43h21.56l12.63,26.26,12.64-26.26h21.55Z"/><path class="cls-1" d="m299.53,134.68v31.5l-6.05,9.22,6.05,9.22v31.5h-54.7v-81.43h54.7Zm-18.44,25.46v-7.02h-17.82v13.06h14.5l3.32-6.04Zm0,30.52l-3.32-6.04h-14.5v13.06h17.82v-7.02Z"/><path class="cls-1" d="m366.87,134.68v56.78h-12.01l12.01,24.66h-18.44l-12.01-24.66h-6.85v24.66h-18.44v-81.43h55.74Zm-18.44,18.44h-18.86v19.89h18.86v-19.89Z"/><path class="cls-1" d="m416.1,196.97h-19.84l-2.24,19.15h-18.44l9.53-81.43h42.14l9.53,81.43h-18.44l-2.24-19.15Zm-2.16-18.44l-2.97-25.41h-9.58l-2.97,25.41h15.53Z"/><path class="cls-1" d="m501.34,134.68v24.24h-18.44v-5.8h-18.86v44.55h18.86v-5.8h18.44v24.24h-55.74v-81.43h55.74Z"/><path class="cls-1" d="m531.4,153.12v13.06h18.85v18.44h-18.85v13.06h37.3v18.44h-55.74v-81.43h55.74v18.44h-37.3Z"/></svg>