<?xml version="1.0" encoding="UTF-8"?><svg id="Layer_1" xmlns="http://www.w3.org/2000/svg" viewBox="0 0 585.38 428.92"><defs><style>.cls-1{fill:#ff7cf9;stroke-width:0px;}</style></defs><polygon class="cls-1" points="25.28 43.71 46.79 88.44 46.86 88.63 46.87 88.62 46.88 88.63 46.95 88.44 68.46 43.7 68.46 111.64 93.74 111.64 93.74 0 64.2 0 46.87 36 29.55 0 0 0 0 111.64 25.28 111.64 25.28 43.71"/><rect class="cls-1" x="109.73" width="25.28" height="111.64"/><polygon class="cls-1" points="151.06 111.64 176.34 111.64 176.34 55.23 202.19 111.64 227.47 111.64 227.47 0 202.19 0 202.19 56.47 176.34 .06 176.34 0 151.03 0 151.06 .06 151.06 111.64"/><polygon class="cls-1" points="264.96 111.64 290.23 111.64 290.23 25.28 315.8 25.28 315.8 0 239.39 0 239.39 25.28 264.96 25.28 264.96 111.64"/><path class="cls-1" d="m0,316.04v112.88h80.71l-13.22-112.88H0Zm25.56,87.32v-61.76h19.36l7.23,61.76h-26.59Z"/><rect class="cls-1" x="92.88" y="316.04" width="25.56" height="112.88"/><polygon class="cls-1" points="134.65 385.26 186.35 385.26 186.35 403.36 134.65 403.36 134.65 428.92 211.91 428.92 211.91 359.7 160.21 359.7 160.21 341.61 211.91 341.61 211.91 316.04 134.65 316.04 134.65 385.26"/><polygon class="cls-1" points="228.01 428.92 305.27 428.92 305.27 395.32 279.71 395.32 279.71 403.36 253.57 403.36 253.57 341.61 279.71 341.61 279.71 349.65 305.27 349.65 305.27 316.04 228.01 316.04 228.01 428.92"/><polygon class="cls-1" points="373.08 403.36 346.94 403.36 346.94 316.04 321.38 316.04 321.38 428.92 398.64 428.92 398.64 316.04 373.08 316.04 373.08 403.36"/><polygon class="cls-1" points="414.75 385.26 466.45 385.26 466.45 403.36 414.75 403.36 414.75 428.92 492.01 428.92 492.01 359.7 440.31 359.7 440.31 341.61 492.01 341.61 492.01 316.04 414.75 316.04 414.75 385.26"/><polygon class="cls-1" points="585.38 341.61 585.38 316.04 508.12 316.04 508.12 385.26 559.82 385.26 559.82 403.36 508.11 403.36 508.11 428.92 585.38 428.92 585.38 359.7 533.68 359.7 533.68 341.61 585.38 341.61"/><path class="cls-1" d="m38.11,247.84h77.09v-117.34H0v168.3h38.11v-50.96Zm0-79.23h38.97v41.12h-38.97v-41.12Z"/><polygon class="cls-1" points="232.75 260.69 177.33 260.69 177.33 130.5 139.22 130.5 139.22 298.8 232.75 298.8 232.75 260.69"/><path class="cls-1" d="m245.01,298.8h38.12l4.63-39.57h41.01l4.64,39.57h38.12l-19.7-168.3h-87.1l-19.7,168.3Zm53.36-130.19h19.8l6.15,52.51h-32.09l6.15-52.51Z"/><polygon class="cls-1" points="426.61 298.8 464.72 298.8 464.72 244.59 519.62 130.49 476.36 130.49 445.67 194.29 414.98 130.49 371.72 130.49 426.61 244.59 426.61 298.8"/></svg>