<?xml version="1.0" encoding="UTF-8"?><svg id="Layer_1" xmlns="http://www.w3.org/2000/svg" viewBox="0 0 340.39 919.56"><defs><style>.cls-1{fill:#f3abff;stroke-width:0px;}</style></defs><path class="cls-1" d="m340.39,375.22c-22.74,13.74-56.61,34.11-101.62,61.11v211.06c-30.32,18-75.8,45.24-136.44,81.72v-330.44c22.74-13.74,56.85-34.11,102.33-61.11V112.28c-15.16,9-38.14,22.74-68.93,41.22v118.67C105.88,253.7,60.64,226.46,0,190.45v-88.83C37.9,78.88,94.75,45.01,170.55,0c37.43,22.27,94.04,56.14,169.84,101.62v273.6Zm-102.33,339.68v122.94c-30.32,18.48-75.8,45.72-136.44,81.72v-122.94c30.32-18,75.8-45.24,136.44-81.72Z"/></svg>