<?xml version="1.0" encoding="UTF-8"?><svg id="Layer_1" xmlns="http://www.w3.org/2000/svg" viewBox="0 0 426.4 265.46"><defs><style>.cls-1{fill:none;}.cls-1,.cls-2{stroke-width:0px;}.cls-2{fill:#ff7cf9;}</style></defs><polygon class="cls-1" points="27.81 35.3 27.81 102.48 56.73 102.48 48.87 35.3 27.81 35.3"/><polygon class="cls-1" points="55.24 181.06 55.24 170.49 28.37 170.49 28.37 190.17 50.23 190.17 55.24 181.06"/><polygon class="cls-1" points="55.24 227.08 50.23 217.97 28.37 217.97 28.37 237.66 55.24 237.66 55.24 227.08"/><rect class="cls-1" x="128.83" y="35.3" width="28.43" height="67.17"/><path class="cls-2" d="m0,7.5v122.78h87.79L73.41,7.5H0Zm27.81,94.98V35.3h21.06l7.86,67.17h-28.92Z"/><path class="cls-2" d="m185.07,7.5h-84.04v122.78h84.04V7.5Zm-27.81,94.98h-28.43V35.3h28.43v67.17Z"/><polygon class="cls-2" points="202.61 130.28 230.41 130.28 230.41 68.24 258.84 130.28 286.65 130.28 286.65 7.5 258.84 7.5 258.84 69.61 230.41 7.57 230.41 7.5 202.58 7.5 202.61 7.56 202.61 130.28"/><polygon class="cls-2" points="307.88 0 304.13 36.55 325.48 36.55 329.23 0 307.88 0"/><polygon class="cls-2" points="342.37 7.5 342.37 35.3 370.48 35.3 370.48 130.28 398.28 130.28 398.28 35.3 426.4 35.3 426.4 7.5 342.37 7.5"/><path class="cls-2" d="m.56,265.46h82.48v-47.49l-9.13-13.9,9.13-13.9v-47.49H.56v122.78Zm27.81-94.98h26.87v10.58l-5.01,9.11h-21.86v-19.69Zm0,47.49h21.86l5.01,9.11v10.58h-26.87v-19.69Z"/><polygon class="cls-2" points="128.34 142.68 100.54 142.68 100.54 265.46 168.77 265.46 168.77 237.66 128.34 237.66 128.34 142.68"/><rect class="cls-2" x="182.09" y="142.68" width="27.81" height="122.78"/><polygon class="cls-2" points="283.78 204.79 255.35 142.75 255.35 142.68 227.52 142.68 227.55 142.75 227.55 265.46 255.35 265.46 255.35 203.42 283.78 265.46 311.59 265.46 311.59 142.68 283.78 142.68 283.78 204.79"/><polygon class="cls-2" points="390.3 142.68 367.46 190.17 356.87 190.17 356.87 142.68 329.07 142.68 329.07 265.46 356.87 265.46 356.87 217.97 367.46 217.97 390.3 265.46 418.11 265.46 388.57 204.07 418.11 142.68 390.3 142.68"/></svg>