<?xml version="1.0" encoding="UTF-8"?><svg id="Layer_1" xmlns="http://www.w3.org/2000/svg" viewBox="0 0 841.88 130.03"><defs><style>.cls-1{fill:#ff7cf9;stroke-width:0px;}</style></defs><path class="cls-1" d="m29.45,29.45v20.85h59.56v79.74H0v-29.44h59.56v-20.85H0V0h89v29.45H29.45Z"/><path class="cls-1" d="m196.56,0v130.03h-89.01V0h29.44v100.59h30.12V0h29.45Z"/><path class="cls-1" d="m304.11,0v90.66h-59.56v39.38h-29.44V0h89Zm-29.44,29.45h-30.11v31.77h30.11v-31.77Z"/><path class="cls-1" d="m411.66,0v90.66h-59.56v39.38h-29.44V0h89Zm-29.44,29.45h-30.11v31.77h30.11v-31.77Z"/><path class="cls-1" d="m519.22,0v90.66h-19.18l19.18,39.38h-29.44l-19.18-39.38h-10.93v39.38h-29.44V0h89Zm-29.44,29.45h-30.11v31.77h30.11v-31.77Z"/><path class="cls-1" d="m567.22,29.45v20.85h30.11v29.44h-30.11v20.85h59.56v29.44h-89.01V0h89.01v29.45h-59.56Z"/><path class="cls-1" d="m674.77,29.45v20.85h59.56v79.74h-89.01v-29.44h59.56v-20.85h-59.56V0h89v29.45h-59.56Z"/><path class="cls-1" d="m782.33,29.45v20.85h59.56v79.74h-89.01v-29.44h59.56v-20.85h-59.56V0h89v29.45h-59.56Z"/></svg>