<?xml version="1.0" encoding="UTF-8"?><svg id="Layer_1" xmlns="http://www.w3.org/2000/svg" viewBox="0 0 747.65 216.22"><defs><style>.cls-1{fill:none;}.cls-1,.cls-2{stroke-width:0px;}.cls-2{fill:#ff7cf9;}</style></defs><rect class="cls-1" x="218.66" y="48.96" width="50.07" height="52.83"/><rect class="cls-1" x="477.5" y="48.96" width="50.07" height="118.3"/><polygon class="cls-2" points="0 13.67 13.83 13.67 13.83 60.37 27.49 60.37 27.49 13.67 41.32 13.67 41.32 0 0 0 0 13.67"/><polygon class="cls-2" points="74.75 23.35 61.54 23.35 61.54 0 47.86 0 47.86 60.37 61.54 60.37 61.54 37.02 74.75 37.02 74.75 60.37 88.42 60.37 88.42 0 74.75 0 74.75 23.35"/><polygon class="cls-2" points="97.02 60.37 138.34 60.37 138.34 46.7 110.69 46.7 110.69 37.02 124.67 37.02 124.67 23.35 110.69 23.35 110.69 13.67 138.34 13.67 138.34 0 97.02 0 97.02 60.37"/><path class="cls-2" d="m169.7,216.22h48.96v-65.48h18.18l31.89,65.48h48.96l-31.89-65.48h31.89V0h-148v216.22Zm48.96-167.26h50.07v52.83h-50.07v-52.83Z"/><rect class="cls-2" x="348.54" width="48.97" height="216.22"/><path class="cls-2" d="m428.54,216.22h148V0h-148v216.22Zm48.96-167.26h50.07v118.3h-50.07V48.96Z"/><polygon class="cls-2" points="599.66 0 599.66 48.96 649.18 48.96 649.18 216.22 698.13 216.22 698.13 48.96 747.65 48.96 747.65 0 599.66 0"/></svg>