<?xml version="1.0" encoding="UTF-8"?><svg id="Layer_1" xmlns="http://www.w3.org/2000/svg" viewBox="0 0 600.94 919.56"><defs><style>.cls-1{fill:#f3abff;stroke-width:0px;}</style></defs><path class="cls-1" d="m178.81,37.04C207.06,20.52,228.29,8.17,242.5,0v219.85c-33.93,19.9-59.43,34.82-76.48,44.77-19.9-11.73-34.73-20.43-44.5-26.12-19.9,11.55-34.82,20.25-44.77,26.12L0,219.85V37.04C28.43,20.52,49.74,8.17,63.96,0v222.25l25.58-15.19V37.04C117.97,20.52,139.2,8.17,153.23,0v222.25c12.79-7.64,21.32-12.7,25.58-15.19V37.04Z"/><path class="cls-1" d="m357.1,37.04C385.53,20.52,406.76,8.17,420.79,0v264.62c-28.25-16.7-49.48-29.14-63.69-37.31v-54.9l-25.58,15.19v77.02c-28.43-16.7-49.74-29.14-63.96-37.31V37.04c28.43-16.52,49.75-28.87,63.96-37.04v162.03c12.79-7.64,21.32-12.7,25.58-15.19V37.04Z"/><path class="cls-1" d="m600.94,219.85c-16.88,9.95-42.37,24.87-76.48,44.77l-76.75-44.77V44.77L524.46,0c17.06,9.95,42.55,24.87,76.48,44.77v175.08Zm-89.27-178.02v165.22l25.58,15.19V57.3c-5.69-3.38-14.21-8.53-25.58-15.46Z"/><path class="cls-1" d="m178.81,364.51c28.25-16.52,49.48-28.87,63.69-37.04v219.85c-33.93,19.9-59.43,34.82-76.48,44.77-19.9-11.73-34.73-20.43-44.5-26.12-19.9,11.55-34.82,20.25-44.77,26.12L0,547.32v-182.81c28.43-16.52,49.74-28.87,63.96-37.04v222.25l25.58-15.19v-170.02c28.43-16.52,49.66-28.87,63.69-37.04v222.25c12.79-7.64,21.32-12.7,25.58-15.19v-170.02Z"/><path class="cls-1" d="m420.79,396.22c-28.25,16.88-49.48,29.58-63.69,38.11v-49.3c-11.37-6.93-19.9-12.17-25.58-15.72v87.94h74.88c-11.55,19.9-20.16,34.82-25.85,44.77h-49.03v32.51l25.58,15.19c23.98-13.32,42.02-23.36,54.1-30.11v33.31c-29.85,17.41-52.14,30.47-66.89,39.17l-76.75-44.77v-175.08l76.75-44.77c38.37,22.38,63.87,37.31,76.48,44.77v23.98Z"/><path class="cls-1" d="m153.23,919.03c-14.04-8.35-35.27-20.79-63.69-37.31v-54.36l-25.58,15.19v76.48c-14.21-8.35-35.53-20.79-63.96-37.31v-182.01l76.75-44.77c17.06,9.95,42.55,24.87,76.48,44.77v219.32Zm-63.69-206.8c-5.68-3.38-14.21-8.53-25.58-15.46v120.19l25.58-15.19v-89.54Z"/><path class="cls-1" d="m333.38,788.72c-8.17,4.97-20.61,12.44-37.31,22.39,8.35,4.97,20.79,12.44,37.31,22.38v86.08c-14.04-8.35-35.27-20.79-63.69-37.31v-54.9l-25.58,15.19v77.02c-14.21-8.35-35.53-20.79-63.96-37.31v-182.55l76.75-44.77c17.06,9.95,42.55,24.87,76.48,44.77v89.01Zm-89.27-91.94v120.19l25.58-15.19v-89.54c-5.68-3.38-14.21-8.53-25.58-15.46Z"/><path class="cls-1" d="m513.53,723.69c-28.25,16.88-49.48,29.58-63.69,38.11v-49.3c-11.37-6.93-19.9-12.17-25.58-15.72v87.94h74.88c-11.55,19.9-20.16,34.82-25.85,44.77h-49.03v32.51l25.58,15.19c23.98-13.32,42.02-23.36,54.1-30.11v33.31c-29.85,17.41-52.14,30.47-66.89,39.17l-76.75-44.77v-175.08l76.75-44.77c38.37,22.39,63.87,37.31,76.48,44.77v23.98Z"/></svg>