<?xml version="1.0" encoding="UTF-8"?><svg id="Layer_2" xmlns="http://www.w3.org/2000/svg" viewBox="0 0 619.72 304.05"><defs><style>.cls-1,.cls-2{stroke-width:0px;}.cls-2{fill:none;}</style></defs><path class="cls-2" d="m57.01,218.22v22.45l5.54,3.29v-35.72c-1.23-.73-3.08-1.85-5.54-3.35v13.33Z"/><polygon class="cls-2" points="121.54 272.65 121.54 280.74 131.9 286.89 131.9 263.26 121.54 269.41 121.54 272.65"/><path class="cls-2" d="m274.54,96.19c-2.3-1.37-5.76-3.45-10.36-6.26v48.67l10.36-6.15v-36.26Z"/><path class="cls-2" d="m151.99,12.64c-1.23-.73-3.08-1.85-5.54-3.35v26.02l5.54-3.29V12.64Z"/><path class="cls-2" d="m191,12.64c-1.23-.73-3.08-1.85-5.54-3.35v35.77l5.54,3.29V12.64Z"/><path class="cls-2" d="m194.48,221.93v40.46l10.36-6.15v-36.26c-2.3-1.37-5.76-3.45-10.36-6.26v8.2Z"/><path class="cls-2" d="m442.11,238.76v41.87l10.36,6.15v-66.69c-2.3-1.37-5.76-3.45-10.36-6.26v24.93Z"/><path class="cls-1" d="m109.81,37.79h10.62c1.23-2.15,3.1-5.39,5.6-9.69h-16.21V9.06c1.23.77,3.08,1.9,5.54,3.4v10.67c3.08-1.85,7.67-4.6,13.79-8.25v-5.19c-2.73-1.62-8.25-4.85-16.56-9.69l-16.62,9.69v39.7l13.85,8.14v-19.73Z"/><path class="cls-1" d="m146.45,40.85l5.54-3.29v11.89c6.15,3.58,10.75,6.27,13.79,8.08v-18.64c-3.58-2.15-6.27-3.77-8.08-4.85,3.62-2.15,6.31-3.77,8.08-4.85V9.92c-7.35-4.31-12.87-7.54-16.56-9.69l-16.62,9.69v39.53c6.15,3.58,10.77,6.27,13.85,8.08v-16.68Zm0-27.18v-4.39c2.46,1.5,4.31,2.62,5.54,3.35v19.39l-5.54,3.29V13.68Z"/><path class="cls-1" d="m204.79,47.83V9.92c-7.35-4.31-12.87-7.54-16.56-9.69l-16.62,9.69v37.91l16.62,9.69c7.39-4.31,12.91-7.54,16.56-9.69Zm-19.33-25.22v-13.33c2.46,1.5,4.31,2.62,5.54,3.35v35.72l-5.54-3.29v-22.45Z"/><path class="cls-1" d="m223.31,9.29c1.23.77,3.08,1.9,5.54,3.4v36.76c3.08,1.77,7.67,4.46,13.79,8.08V9.29c1.23.77,3.08,1.9,5.54,3.4v36.76c3.08,1.77,7.67,4.46,13.79,8.08V9.92c-3.69-2.15-9.21-5.39-16.56-9.69-1.62.92-4.83,2.81-9.64,5.65-1.62-.96-4.85-2.85-9.69-5.65l-16.62,9.69v39.53c3.08,1.77,7.69,4.46,13.85,8.08V9.29Z"/><path class="cls-1" d="m95.64,91.12v30.65l36.26,21.69v19.53l-10.36-6.15v-16.4c-5.75,3.38-14.39,8.42-25.9,15.11v6.47l31.08,18.13c6.91-4.03,17.23-10.07,30.97-18.13v-29.89c-7.99-4.82-20.03-12.09-36.15-21.8v-20.39c2.3,1.44,5.76,3.56,10.36,6.37v15.86c5.76-3.38,14.35-8.38,25.79-15v-6.04c-5.11-3.02-15.43-9.06-30.97-18.13l-31.08,18.13Z"/><path class="cls-1" d="m210.99,180.14v-90.21c2.23,1.44,5.65,3.56,10.25,6.37l17.16-10.36c-3.74-2.16-11.19-6.47-22.34-12.95h-36.15l-22.34,12.95,17.16,10.36c2.3-1.44,5.76-3.56,10.36-6.37v75.1c5.76,3.31,14.39,8.34,25.9,15.11Z"/><path class="cls-1" d="m264.18,148.96l10.36-6.15v22.23c11.51,6.69,20.11,11.73,25.79,15.11v-34.85c-6.69-4.03-11.73-7.05-15.11-9.06,6.76-4.03,11.8-7.05,15.11-9.06v-36.04c-13.74-8.06-24.06-14.1-30.97-18.13l-31.08,18.13v73.92c11.51,6.69,20.14,11.73,25.9,15.11v-31.18Zm0-50.82v-8.2c4.6,2.81,8.06,4.89,10.36,6.26v36.26l-10.36,6.15v-40.46Z"/><path class="cls-1" d="m369.39,150.79c-4.89,2.73-12.19,6.8-21.9,12.19l-10.36-6.15v-13.16h19.85c2.3-4.03,5.79-10.07,10.47-18.13h-30.32v-35.61c2.3,1.44,5.76,3.56,10.36,6.37v19.96c5.76-3.45,14.35-8.6,25.79-15.43v-9.71c-5.11-3.02-15.43-9.06-30.97-18.13l-31.08,18.13v70.89l31.08,18.13c5.97-3.52,15-8.81,27.08-15.86v-13.49Z"/><path class="cls-1" d="m437.91,150.79c-4.89,2.73-12.19,6.8-21.9,12.19l-10.36-6.15v-13.16h19.85c2.3-4.03,5.79-10.07,10.47-18.13h-30.32v-35.61c2.3,1.44,5.76,3.56,10.36,6.37v19.96c5.76-3.45,14.35-8.6,25.79-15.43v-9.71c-5.11-3.02-15.43-9.06-30.97-18.13l-31.08,18.13v70.89l31.08,18.13c5.97-3.52,15-8.81,27.08-15.86v-13.49Z"/><path class="cls-1" d="m469.2,89.93v75.1c5.76,3.31,14.39,8.34,25.9,15.11v-90.21c2.23,1.44,5.65,3.56,10.25,6.37l17.16-10.36c-3.74-2.16-11.19-6.47-22.34-12.95h-36.15l-22.34,12.95,17.16,10.36c2.3-1.44,5.76-3.56,10.36-6.37Z"/><path class="cls-1" d="m95.64,214.92v71l31.08,18.13c13.81-8.06,24.14-14.1,30.97-18.13v-48.56c-16.04,9.64-28.09,16.87-36.15,21.69v-45.32c4.6,2.81,8.06,4.89,10.36,6.26v19.64c11.51-6.69,20.11-11.69,25.79-15v-9.71c-13.74-8.06-24.06-14.1-30.97-18.13l-31.08,18.13Zm36.26,48.34v23.63l-10.36-6.15v-11.33l10.36-6.15Z"/><path class="cls-1" d="m168.58,214.92v73.7c11.51,6.69,20.14,11.73,25.9,15.11v-30.97l10.36-6.15v22.01c11.51,6.69,20.11,11.73,25.79,15.11v-88.81c-13.74-8.06-24.06-14.1-30.97-18.13l-31.08,18.13Zm36.26,41.33l-10.36,6.15v-48.67c4.6,2.81,8.06,4.89,10.36,6.26v36.26Z"/><path class="cls-1" d="m288.57,207.36c-3.02-1.8-9.06-5.32-18.13-10.57l-31.08,18.13v73.92c5.76,3.31,14.39,8.34,25.9,15.11v-90.21c2.3,1.44,5.75,3.56,10.36,6.37v68.74c5.76,3.31,14.35,8.34,25.79,15.11v-90.21c2.3,1.44,5.76,3.56,10.36,6.37v68.74c5.76,3.31,14.35,8.34,25.79,15.11v-89.02c-6.91-4.03-17.23-10.07-30.97-18.13-3.02,1.73-9.03,5.25-18.02,10.57Z"/><path class="cls-1" d="m347.7,214.92v70.89l31.08,18.13c5.97-3.52,15-8.81,27.08-15.86v-13.49c-4.89,2.73-12.19,6.8-21.9,12.19l-10.36-6.15v-13.16h19.85c2.3-4.03,5.79-10.07,10.47-18.13h-30.32v-35.61c2.3,1.44,5.76,3.56,10.36,6.37v19.96c5.76-3.45,14.35-8.6,25.79-15.43v-9.71c-5.11-3.02-15.43-9.06-30.97-18.13l-31.08,18.13Z"/><path class="cls-1" d="m432.62,205.53c-7.27-4.39-12.73-7.7-16.4-9.93v106.72c6.26-3.74,10.93-6.55,14.03-8.42,7.55,4.39,13.24,7.7,17.05,9.93,13.81-8.06,24.14-14.1,30.97-18.13v-70.68c-13.74-8.06-24.06-14.1-30.97-18.13-6.55,3.81-11.44,6.69-14.68,8.63Zm19.85,81.25l-10.36-6.15v-66.79c4.6,2.81,8.06,4.89,10.36,6.26v66.69Z"/><path class="cls-1" d="m489.16,214.92v70.89l31.08,18.13c5.97-3.52,15-8.81,27.08-15.86v-13.49c-4.89,2.73-12.19,6.8-21.9,12.19l-10.36-6.15v-13.16h19.85c2.3-4.03,5.79-10.07,10.47-18.13h-30.32v-35.61c2.3,1.44,5.76,3.56,10.36,6.37v19.96c5.76-3.45,14.35-8.6,25.79-15.43v-9.71c-5.11-3.02-15.43-9.06-30.97-18.13l-31.08,18.13Z"/><path class="cls-1" d="m593.93,211.79v74.99c-1.73-1.01-5.18-3.06-10.36-6.15v-83.84c-5.76,3.31-14.39,8.31-25.9,15v74.02l31.08,18.13c6.91-4.03,17.23-10.07,30.97-18.13v-89.02c-5.68,3.31-14.28,8.31-25.79,15Z"/><path class="cls-1" d="m31.27,195.84H11.94l-11.94,6.92,9.17,5.54c1.23-.77,3.08-1.9,5.54-3.4v40.16c3.08,1.77,7.69,4.46,13.85,8.08v-48.24c1.19.77,3.02,1.9,5.48,3.4l9.17-5.54c-2-1.15-5.98-3.46-11.94-6.92Z"/><path class="cls-1" d="m43.16,205.53v37.91l16.62,9.69c7.39-4.31,12.91-7.54,16.56-9.69v-37.91c-7.35-4.31-12.87-7.54-16.56-9.69l-16.62,9.69Zm19.39,38.43l-5.54-3.29v-35.77c2.46,1.5,4.31,2.62,5.54,3.35v35.72Z"/></svg>