<?xml version="1.0" encoding="UTF-8"?><svg id="Layer_1" xmlns="http://www.w3.org/2000/svg" viewBox="0 0 500 500"><defs><style>.cls-1{fill:#f6cdff;stroke-width:0px;}</style></defs><path class="cls-1" d="m64.38,126.36c5.18,3.01,13.04,7.62,23.58,13.84,9.04-5.27,22.54-13.18,40.52-23.72V0c-7.53,4.33-18.78,10.87-33.74,19.62v90.08c-2.26,1.32-6.78,4-13.55,8.05V0c-7.44,4.33-18.68,10.87-33.74,19.62v90.08l-13.55,8.05V0C26.35,4.33,15.06,10.87,0,19.63v96.85l40.66,23.72c5.27-3.11,13.18-7.72,23.72-13.84Z"/><path class="cls-1" d="m175.63,99.4l13.55-8.05v29.08c7.53,4.33,18.78,10.92,33.74,19.77V0c-7.44,4.33-18.68,10.87-33.74,19.62v58.17c-2.26,1.32-6.78,4-13.55,8.05V0c-7.53,4.33-18.82,10.87-33.88,19.62v100.81c7.53,4.33,18.82,10.92,33.88,19.77v-40.8Z"/><path class="cls-1" d="m237.19,23.72v92.76l40.66,23.72c18.07-10.54,31.58-18.45,40.52-23.72V23.72C300.4,13.18,286.89,5.27,277.85,0l-40.66,23.72Zm47.44,94.03l-13.55-8.05V22.17c6.02,3.67,10.54,6.4,13.55,8.19v87.39Z"/><path class="cls-1" d="m128.48,179.9c-7.53,4.33-18.78,10.87-33.74,19.62v90.08c-2.26,1.32-6.78,4-13.55,8.05v-117.75c-7.44,4.33-18.68,10.87-33.74,19.62v90.08l-13.55,8.05v-117.75c-7.53,4.33-18.82,10.87-33.88,19.62v96.85l40.66,23.72c5.27-3.11,13.18-7.72,23.72-13.84,5.18,3.01,13.04,7.62,23.58,13.84,9.04-5.27,22.54-13.18,40.52-23.72v-116.48Z"/><path class="cls-1" d="m217.85,281.7c-6.4,3.58-15.95,8.89-28.66,15.95l-13.55-8.05v-17.22h25.98c3.01-5.27,7.58-13.18,13.69-23.72h-39.67v-46.59c3.01,1.88,7.53,4.66,13.55,8.33v26.12c7.53-4.52,18.78-11.25,33.74-20.19v-12.71c-6.68-3.95-20.19-11.86-40.52-23.72l-40.66,23.72v92.76l40.66,23.72c7.81-4.61,19.62-11.53,35.44-20.75v-17.65Z"/><path class="cls-1" d="m0,383.52v96.43c15.06,8.75,26.35,15.34,33.88,19.77v-40.52l13.55-8.05v28.8c15.06,8.75,26.31,15.34,33.74,19.77v-116.2c-17.98-10.54-31.48-18.45-40.52-23.72L0,383.52Zm47.44,54.07l-13.55,8.05v-63.67c6.02,3.67,10.54,6.4,13.55,8.19v47.44Z"/><path class="cls-1" d="m95.44,383.52v96.71c15.06,8.75,26.35,15.34,33.88,19.77v-40.8l13.55-8.05v29.08c15.06,8.75,26.31,15.34,33.74,19.77v-45.6c-8.75-5.27-15.34-9.22-19.77-11.86,8.85-5.27,15.44-9.22,19.77-11.86v-47.16c-17.98-10.54-31.48-18.45-40.52-23.72l-40.66,23.72Zm47.44,54.07l-13.55,8.05v-63.67c6.02,3.67,10.54,6.4,13.55,8.19v47.44Z"/><path class="cls-1" d="m190.88,383.52v92.76l40.66,23.72c7.81-4.61,19.62-11.53,35.44-20.75v-17.65c-6.4,3.58-15.95,8.89-28.66,15.95l-13.55-8.05v-17.22h25.98c3.01-5.27,7.58-13.18,13.69-23.72h-39.67v-46.59c3.01,1.88,7.53,4.66,13.55,8.33v26.12c7.53-4.52,18.78-11.25,33.74-20.19v-12.71c-6.68-3.95-20.19-11.86-40.52-23.72l-40.66,23.72Z"/><path class="cls-1" d="m392.31,499.72c27.35-16.24,47.86-28.52,61.54-36.86v-85.91c-27.35,16.45-47.86,28.74-61.54,36.86v85.91Z"/><path class="cls-1" d="m423.4,0c-34.19,20.3-59.83,35.58-76.92,45.83v71.92c27.35,16.24,47.76,28.53,61.22,36.86v-85.38c13.89-8.33,24.25-14.53,31.09-18.59v154.44c-20.51,12.18-35.9,21.37-46.15,27.56v141.3c27.35-16.45,47.86-28.74,61.54-36.86v-80.36c20.3-12.18,35.58-21.37,45.83-27.56V45.83c-34.19-20.51-59.72-35.79-76.6-45.83Z"/></svg>